HIERARCHY
ROOT hip
{
	OFFSET 0.000000 0.000000 0.000000
	CHANNELS 6 Xposition Yposition Zposition Zrotation Yrotation Xrotation 
	JOINT lhipjoint
	{
		OFFSET 0.000000 0.000000 0.000000
		CHANNELS 3 Zrotation Yrotation Xrotation
		JOINT lfemur
		{
			OFFSET 1.363060 -1.794630 0.839290
			CHANNELS 3 Zrotation Yrotation Xrotation
			JOINT ltibia
			{
				OFFSET 2.448110 -6.726130 0.000000
				CHANNELS 3 Zrotation Yrotation Xrotation
				JOINT lfoot
				{
					OFFSET 2.562200 -7.039590 0.000000
					CHANNELS 3 Zrotation Yrotation Xrotation
					JOINT ltoes
					{
						OFFSET 0.157640 -0.433110 2.322550
						CHANNELS 3 Zrotation Yrotation Xrotation
						End Site
						{
							OFFSET 0.000000 0.000000 0.000000
						}
					}
				}
			}
		}
	}
	JOINT rhipjoint
	{
		OFFSET 0.000000 0.000000 0.000000
		CHANNELS 3 Zrotation Yrotation Xrotation
		JOINT rfemur
		{
			OFFSET -1.305520 -1.794630 0.839290
			CHANNELS 3 Zrotation Yrotation Xrotation
			JOINT rtibia
			{
				OFFSET -2.542530 -6.985550 0.000000
				CHANNELS 3 Zrotation Yrotation Xrotation
				JOINT rfoot
				{
					OFFSET -2.568260 -7.056230 0.000000
					CHANNELS 3 Zrotation Yrotation Xrotation
					JOINT rtoes
					{
						OFFSET -0.164730 -0.452590 2.363150
						CHANNELS 3 Zrotation Yrotation Xrotation
						End Site
						{
							OFFSET 0.000000 0.000000 0.000000
						}
					}
				}
			}
		}
	}
	JOINT lowerback
	{
		OFFSET 0.000000 0.000000 0.000000
		CHANNELS 3 Zrotation Yrotation Xrotation
		JOINT upperback
		{
			OFFSET 0.028270 2.035590 -0.193380
			CHANNELS 3 Zrotation Yrotation Xrotation
			JOINT thorax
			{
				OFFSET 0.056720 2.048850 -0.042750
				CHANNELS 3 Zrotation Yrotation Xrotation
				JOINT lowerneck
				{
					OFFSET 0.000000 0.000000 0.000000
					CHANNELS 3 Zrotation Yrotation Xrotation
					JOINT upperneck
					{
						OFFSET -0.054170 1.746240 0.172020
						CHANNELS 3 Zrotation Yrotation Xrotation
						JOINT head
						{
							OFFSET 0.104070 1.761360 -0.123970
							CHANNELS 3 Zrotation Yrotation Xrotation
							End Site
							{
								OFFSET 0.000000 0.000000 0.000000
							}
						}
					}
				}
				JOINT lclavicle
				{
					OFFSET 0.000000 0.000000 0.000000
					CHANNELS 3 Zrotation Yrotation Xrotation
					JOINT lhumerus
					{
						OFFSET 3.362410 1.200890 -0.311210
						CHANNELS 3 Zrotation Yrotation Xrotation
						JOINT lradius
						{
							OFFSET 4.983000 -0.000000 -0.000000
							CHANNELS 3 Zrotation Yrotation Xrotation
							JOINT lwrist
							{
								OFFSET 3.483560 -0.000000 -0.000000
								CHANNELS 3 Zrotation Yrotation Xrotation
								JOINT lhand
								{
									OFFSET 0.000000 0.000000 0.000000
									CHANNELS 3 Zrotation Yrotation Xrotation
									JOINT lfingers
									{
										OFFSET 0.715260 -0.000000 -0.000000
										CHANNELS 3 Zrotation Yrotation Xrotation
										End Site
										{
											OFFSET 0.000000 0.000000 0.000000
										}
									}
								}
								JOINT lthumb
								{
									OFFSET 0.000000 0.000000 0.000000
									CHANNELS 3 Zrotation Yrotation Xrotation
									End Site
									{
										OFFSET 0.000000 0.000000 0.000000
									}
								}
							}
						}
					}
				}
				JOINT rclavicle
				{
					OFFSET 0.000000 0.000000 0.000000
					CHANNELS 3 Zrotation Yrotation Xrotation
					JOINT rhumerus
					{
						OFFSET -3.136600 1.374050 -0.404650
						CHANNELS 3 Zrotation Yrotation Xrotation
						JOINT rradius
						{
							OFFSET -5.241900 -0.000000 -0.000000
							CHANNELS 3 Zrotation Yrotation Xrotation
							JOINT rwrist
							{
								OFFSET -3.444170 -0.000000 -0.000000
								CHANNELS 3 Zrotation Yrotation Xrotation
								JOINT rhand
								{
									OFFSET 0.000000 0.000000 0.000000
									CHANNELS 3 Zrotation Yrotation Xrotation
									JOINT rfingers
									{
										OFFSET -0.622530 -0.000000 -0.000000
										CHANNELS 3 Zrotation Yrotation Xrotation
										End Site
										{
											OFFSET 0.000000 0.000000 0.000000
										}
									}
								}
								JOINT rthumb
								{
									OFFSET 0.000000 0.000000 0.000000
									CHANNELS 3 Zrotation Yrotation Xrotation
									End Site
									{
										OFFSET 0.000000 0.000000 0.000000
									}
								}
							}
						}
					}
				}
			}
		}
	}
}
MOTION
Frames: 5
Frame Time: 0.008333
1.822340 17.620535 9.774017 3.562590 15.773337 -4.234662 -2.100841 2.377743 0.957511 -26.733142 -14.723179 -12.273216 4.601873 10.595999 37.073199 0.616367 -1.693905 -6.394073 0.000400 0.136200 0.374200 1.113628 -4.044200 2.210899 9.498323 -5.304558 -15.158620 -12.231137 -17.666904 66.977043 -0.923317 0.955972 15.438261 -0.587800 4.908600 -13.648100 -4.588543 1.475527 9.271177 -0.615559 0.743446 -4.178012 -1.880130 1.377525 -0.179381 -4.965828 -0.775712 -0.163390 -5.731628 -0.170582 11.365859 1.624200 -0.721000 3.631000 2.274057 1.052083 0.835294 -92.679447 2.787771 -10.630512 5.755016 -24.128070 -1.836172 -0.609708 0.419009 30.861618 10.698969 -4.506349 -0.917500 -7.125000 0.000000 0.000000 -11.398800 25.333000 5.529700 -2.338399 0.925953 3.227552 87.742941 -16.845427 34.834314 -38.299285 51.916396 -10.286940 0.263503 -4.037116 -2.049110 -12.017737 10.283822 -3.081000 7.125000 0.000000 0.000000 10.405200 -15.387100 7.396100 
1.846939 17.626275 9.899060 3.552818 16.239191 -4.289524 -2.100029 2.377741 0.976426 -26.870649 -14.754089 -11.634117 4.587915 10.581843 37.006886 0.692149 -2.007735 -6.687069 0.000100 0.075700 0.208100 1.105688 -3.997243 2.172225 9.541351 -5.079940 -16.207574 -12.272140 -17.742982 67.163545 -0.931079 1.309436 14.802131 -0.510800 4.581300 -12.718000 -4.572274 1.419219 9.370061 -0.613071 0.671031 -4.171692 -1.805556 1.334917 -0.180213 -5.270137 -0.937670 -0.106971 -5.638231 -0.376959 11.346298 1.763700 -0.836400 3.631900 2.180719 1.084492 0.825929 -92.632645 2.804716 -8.900829 6.207228 -24.923588 -1.955439 -0.603608 0.442926 29.476337 10.819698 -4.624844 -0.960500 -7.125000 0.000000 0.000000 -11.292100 25.171000 5.519400 -2.244745 0.880517 3.259877 87.492086 -16.906711 34.518344 -39.956433 52.992695 -11.189499 0.227168 -4.088090 -3.030713 -12.681239 10.801432 -3.355300 7.125000 0.000000 0.000000 10.021100 -14.754800 7.252100 
1.869693 17.628940 10.021642 3.530906 16.717116 -4.332098 -2.099259 2.378974 0.992290 -26.988791 -14.831323 -11.016627 4.578015 10.572195 36.957207 0.766653 -2.315001 -6.975785 0.000000 0.022700 0.062300 1.097964 -3.949462 2.132007 9.616665 -4.837952 -17.236976 -12.262935 -17.795353 67.180095 -0.933249 1.596273 14.184421 -0.417400 4.146700 -11.489800 -4.549002 1.364955 9.451018 -0.610412 0.605264 -4.161748 -1.744478 1.294349 -0.162042 -5.514790 -1.111839 -0.047560 -5.564987 -0.599182 11.314120 1.876900 -0.954600 3.620700 2.089079 1.127915 0.818196 -92.562692 2.814155 -7.113263 6.710845 -25.771243 -2.091936 -0.595734 0.470114 28.060647 10.925613 -4.692992 -0.993400 -7.125000 0.000000 0.000000 -11.201900 25.054700 5.504600 -2.147691 0.826861 3.296343 87.202320 -16.878590 34.154390 -41.747382 54.112843 -12.206932 0.186455 -4.144320 -3.973300 -13.468397 11.353798 -3.685400 7.125000 0.000000 0.000000 9.562000 -14.064900 7.052400 
1.890601 17.631707 10.143098 3.484759 17.205511 -4.382842 -2.100164 2.381048 1.009038 -27.069582 -14.910953 -10.423267 4.573171 10.570517 36.932676 0.839297 -2.610744 -7.260166 0.000100 -0.056700 -0.155700 1.089156 -3.903432 2.092788 9.734110 -4.562008 -18.198947 -12.204820 -17.820892 67.035779 -0.931530 1.867907 13.499765 -0.313400 3.599100 -9.951400 -4.518109 1.304816 9.543993 -0.601730 0.532259 -4.155601 -1.660358 1.248424 -0.168118 -5.744620 -1.278146 0.032457 -5.501008 -0.812777 11.282686 1.979100 -1.068000 3.606500 1.997826 1.169336 0.810154 -92.504006 2.872753 -5.335084 7.271463 -26.674362 -2.246714 -0.588129 0.499281 26.617677 11.051297 -4.778918 -1.032700 -7.125000 0.000000 0.000000 -11.096000 24.917900 5.486600 -2.045020 0.772061 3.331218 86.847965 -16.804867 33.761903 -43.733503 55.282251 -13.361467 0.141712 -4.196379 -4.840923 -14.256010 11.922136 -4.034100 7.125000 0.000000 0.000000 9.110100 -13.356600 6.848100 
1.909973 17.632220 10.263528 3.468217 17.700349 -4.402911 -2.101168 2.384118 1.023307 -27.167733 -15.022314 -9.857285 4.574423 10.574520 36.932621 0.912133 -2.907428 -7.544128 0.000200 -0.079500 -0.218400 1.077926 -3.857079 2.053358 9.822492 -4.281880 -19.150948 -12.103162 -17.830039 66.760927 -0.942419 2.260058 12.667910 -0.249800 3.216200 -8.881300 -4.532334 1.248014 9.616080 -0.591735 0.461853 -4.150022 -1.556116 1.200677 -0.172669 -5.921128 -1.448785 0.122028 -5.466326 -1.031636 11.234990 2.048000 -1.178600 3.575600 1.913355 1.215610 0.803484 -92.443643 2.934813 -3.594392 7.856928 -27.586340 -2.411973 -0.581120 0.528819 25.241044 11.186662 -4.877531 -1.075900 -7.125000 0.000000 0.000000 -10.983300 24.768600 5.467700 -1.939610 0.712520 3.365481 86.441311 -16.651254 33.313563 -45.884933 56.465720 -14.647702 0.093497 -4.247229 -5.528578 -15.098793 12.465530 -4.412500 7.125000 0.000000 0.000000 8.623000 -12.660500 6.600300 
